HIERARCHY
ROOT Hips
{
  OFFSET 3.32254 100.381 249.273
  CHANNELS 6 Xposition Yposition Zposition Zrotation Xrotation Yrotation
  JOINT Spine
  {
    OFFSET 0 10.1816 0.1315
    CHANNELS 6 Xposition Yposition Zposition Zrotation Xrotation Yrotation
    JOINT Spine1
    {
      OFFSET 0 10.0835 -1.0008
      CHANNELS 6 Xposition Yposition Zposition Zrotation Xrotation Yrotation
      JOINT Spine2
      {
        OFFSET 0 9.1 -1.3734
        CHANNELS 6 Xposition Yposition Zposition Zrotation Xrotation Yrotation
        JOINT Neck
        {
          OFFSET 0 16.6717 -2.5162
          CHANNELS 6 Xposition Yposition Zposition Zrotation Xrotation Yrotation
          JOINT Head
          {
            OFFSET 0 9.6179 1.685
            CHANNELS 6 Xposition Yposition Zposition Zrotation Xrotation Yrotation
            JOINT HeadTop_End
            {
              OFFSET 0 17.8152 2.585
              CHANNELS 6 Xposition Yposition Zposition Zrotation Xrotation Yrotation
              End Site
              {
                OFFSET 0 0 0
              }
            }
            JOINT LeftEye
            {
              OFFSET 3.0676 6.4095 9.2836
              CHANNELS 6 Xposition Yposition Zposition Zrotation Xrotation Yrotation
              End Site
              {
                OFFSET 0 0 0
              }
            }
            JOINT RightEye
            {
              OFFSET -3.0676 6.4095 9.2835
              CHANNELS 6 Xposition Yposition Zposition Zrotation Xrotation Yrotation
              End Site
              {
                OFFSET 0 0 0
              }
            }
          }
        }
        JOINT LeftShoulder
        {
          OFFSET 4.5704 10.946 -2.628
          CHANNELS 6 Xposition Yposition Zposition Zrotation Xrotation Yrotation
          JOINT LeftArm
          {
            OFFSET 10.5924 -0.5246 -2.2321
            CHANNELS 6 Xposition Yposition Zposition Zrotation Xrotation Yrotation
            JOINT LeftForeArm
            {
              OFFSET 27.8415 -0.0001 0
              CHANNELS 6 Xposition Yposition Zposition Zrotation Xrotation Yrotation
              JOINT LeftHand
              {
                OFFSET 28.3288 0 0
                CHANNELS 6 Xposition Yposition Zposition Zrotation Xrotation Yrotation
                JOINT LeftHandThumb1
                {
                  OFFSET 2.4661 -1.575 2.6824
                  CHANNELS 6 Xposition Yposition Zposition Zrotation Xrotation Yrotation
                  JOINT LeftHandThumb2
                  {
                    OFFSET 3.2298 -1.8647 1.8647
                    CHANNELS 6 Xposition Yposition Zposition Zrotation Xrotation Yrotation
                    JOINT LeftHandThumb3
                    {
                      OFFSET 2.6526 -1.5315 1.5315
                      CHANNELS 6 Xposition Yposition Zposition Zrotation Xrotation Yrotation
                      End Site
                      {
                        OFFSET 1.9546 -1.1285 1.1285
                      }
                    }
                  }
                }
                JOINT LeftHandIndex1
                {
                  OFFSET 9.1093 -0.5171 2.2601
                  CHANNELS 6 Xposition Yposition Zposition Zrotation Xrotation Yrotation
                  JOINT LeftHandIndex2
                  {
                    OFFSET 3.6764 0 0
                    CHANNELS 6 Xposition Yposition Zposition Zrotation Xrotation Yrotation
                    JOINT LeftHandIndex3
                    {
                      OFFSET 2.8831 0 0
                      CHANNELS 6 Xposition Yposition Zposition Zrotation Xrotation Yrotation
                      End Site
                      {
                        OFFSET 2.3927 0 0
                      }
                    }
                  }
                }
                JOINT LeftHandMiddle1
                {
                  OFFSET 9.5334 0 0
                  CHANNELS 6 Xposition Yposition Zposition Zrotation Xrotation Yrotation
                  JOINT LeftHandMiddle2
                  {
                    OFFSET 3.6982 0 0
                    CHANNELS 6 Xposition Yposition Zposition Zrotation Xrotation Yrotation
                    JOINT LeftHandMiddle3
                    {
                      OFFSET 2.9509 0 0
                      CHANNELS 6 Xposition Yposition Zposition Zrotation Xrotation Yrotation
                      End Site
                      {
                        OFFSET 2.8339 0 0
                      }
                    }
                  }
                }
                JOINT LeftHandRing1
                {
                  OFFSET 9.1045 -0.0439 -1.8651
                  CHANNELS 6 Xposition Yposition Zposition Zrotation Xrotation Yrotation
                  JOINT LeftHandRing2
                  {
                    OFFSET 3.154 0 0
                    CHANNELS 6 Xposition Yposition Zposition Zrotation Xrotation Yrotation
                    JOINT LeftHandRing3
                    {
                      OFFSET 2.9377 0 0
                      CHANNELS 6 Xposition Yposition Zposition Zrotation Xrotation Yrotation
                      End Site
                      {
                        OFFSET 2.6475 0 0
                      }
                    }
                  }
                }
                JOINT LeftHandPinky1
                {
                  OFFSET 8.0778 -0.4887 -3.8061
                  CHANNELS 6 Xposition Yposition Zposition Zrotation Xrotation Yrotation
                  JOINT LeftHandPinky2
                  {
                    OFFSET 3.6 0 0
                    CHANNELS 6 Xposition Yposition Zposition Zrotation Xrotation Yrotation
                    JOINT LeftHandPinky3
                    {
                      OFFSET 2.1142 0 0
                      CHANNELS 6 Xposition Yposition Zposition Zrotation Xrotation Yrotation
                      End Site
                      {
                        OFFSET 1.9757 0 0
                      }
                    }
                  }
                }
              }
            }
          }
        }
        JOINT RightShoulder
        {
          OFFSET -4.57 10.9462 -2.628
          CHANNELS 6 Xposition Yposition Zposition Zrotation Xrotation Yrotation
          JOINT RightArm
          {
            OFFSET -10.5928 -0.5248 -2.2321
            CHANNELS 6 Xposition Yposition Zposition Zrotation Xrotation Yrotation
            JOINT RightForeArm
            {
              OFFSET -27.8415 0 0
              CHANNELS 6 Xposition Yposition Zposition Zrotation Xrotation Yrotation
              JOINT RightHand
              {
                OFFSET -28.3288 0 0.0001
                CHANNELS 6 Xposition Yposition Zposition Zrotation Xrotation Yrotation
                JOINT RightHandPinky1
                {
                  OFFSET -8.0767 -0.4885 -3.806
                  CHANNELS 6 Xposition Yposition Zposition Zrotation Xrotation Yrotation
                  JOINT RightHandPinky2
                  {
                    OFFSET -3.6 0 0.0001
                    CHANNELS 6 Xposition Yposition Zposition Zrotation Xrotation Yrotation
                    JOINT RightHandPinky3
                    {
                      OFFSET -2.1142 0 0
                      CHANNELS 6 Xposition Yposition Zposition Zrotation Xrotation Yrotation
                      End Site
                      {
                        OFFSET -1.9757 0 0
                      }
                    }
                  }
                }
                JOINT RightHandRing1
                {
                  OFFSET -9.1036 -0.0439 -1.8651
                  CHANNELS 6 Xposition Yposition Zposition Zrotation Xrotation Yrotation
                  JOINT RightHandRing2
                  {
                    OFFSET -3.154 0 0
                    CHANNELS 6 Xposition Yposition Zposition Zrotation Xrotation Yrotation
                    JOINT RightHandRing3
                    {
                      OFFSET -2.9377 0 0
                      CHANNELS 6 Xposition Yposition Zposition Zrotation Xrotation Yrotation
                      End Site
                      {
                        OFFSET -2.6475 0 0
                      }
                    }
                  }
                }
                JOINT RightHandMiddle1
                {
                  OFFSET -9.5325 0 0
                  CHANNELS 6 Xposition Yposition Zposition Zrotation Xrotation Yrotation
                  JOINT RightHandMiddle2
                  {
                    OFFSET -3.6982 0 0
                    CHANNELS 6 Xposition Yposition Zposition Zrotation Xrotation Yrotation
                    JOINT RightHandMiddle3
                    {
                      OFFSET -2.9509 0 0
                      CHANNELS 6 Xposition Yposition Zposition Zrotation Xrotation Yrotation
                      End Site
                      {
                        OFFSET -2.8339 0 0.0001
                      }
                    }
                  }
                }
                JOINT RightHandIndex1
                {
                  OFFSET -9.1083 -0.5168 2.2601
                  CHANNELS 6 Xposition Yposition Zposition Zrotation Xrotation Yrotation
                  JOINT RightHandIndex2
                  {
                    OFFSET -3.6764 0 0
                    CHANNELS 6 Xposition Yposition Zposition Zrotation Xrotation Yrotation
                    JOINT RightHandIndex3
                    {
                      OFFSET -2.8831 0 0
                      CHANNELS 6 Xposition Yposition Zposition Zrotation Xrotation Yrotation
                      End Site
                      {
                        OFFSET -2.3927 0 0
                      }
                    }
                  }
                }
                JOINT RightHandThumb1
                {
                  OFFSET -2.4648 -1.5727 2.6826
                  CHANNELS 6 Xposition Yposition Zposition Zrotation Xrotation Yrotation
                  JOINT RightHandThumb2
                  {
                    OFFSET -3.2298 -1.8647 1.8647
                    CHANNELS 6 Xposition Yposition Zposition Zrotation Xrotation Yrotation
                    JOINT RightHandThumb3
                    {
                      OFFSET -2.6526 -1.5314 1.5314
                      CHANNELS 6 Xposition Yposition Zposition Zrotation Xrotation Yrotation
                      End Site
                      {
                        OFFSET -1.9546 -1.1285 1.1285
                      }
                    }
                  }
                }
              }
            }
          }
        }
      }
    }
  }
  JOINT LeftUpLeg
  {
    OFFSET 8.2078 -6.7517 -1.5996
    CHANNELS 6 Xposition Yposition Zposition Zrotation Xrotation Yrotation
    JOINT LeftLeg
    {
      OFFSET 0 -44.3705 0.2846
      CHANNELS 6 Xposition Yposition Zposition Zrotation Xrotation Yrotation
      JOINT LeftFoot
      {
        OFFSET 0 -44.4279 -2.9822
        CHANNELS 6 Xposition Yposition Zposition Zrotation Xrotation Yrotation
        JOINT LeftToeBase
        {
          OFFSET 0 -8.7287 10.7106
          CHANNELS 6 Xposition Yposition Zposition Zrotation Xrotation Yrotation
          End Site
          {
            OFFSET 0 -0.0007 9.2781
          }
        }
      }
    }
  }
  JOINT RightUpLeg
  {
    OFFSET -8.2078 -6.7517 -1.5996
    CHANNELS 6 Xposition Yposition Zposition Zrotation Xrotation Yrotation
    JOINT RightLeg
    {
      OFFSET 0 -44.3705 0.2862
      CHANNELS 6 Xposition Yposition Zposition Zrotation Xrotation Yrotation
      JOINT RightFoot
      {
        OFFSET 0 -44.4277 -2.9838
        CHANNELS 6 Xposition Yposition Zposition Zrotation Xrotation Yrotation
        JOINT RightToeBase
        {
          OFFSET 0 -8.7287 10.7106
          CHANNELS 6 Xposition Yposition Zposition Zrotation Xrotation Yrotation
          End Site
          {
            OFFSET 0 -0.0007 9.2781
          }
        }
      }
    }
  }
}
MOTION
Frames:	4
Frame Time:	0.0333333
3.31923 100.381 86.777 4.17763 23.3974 0.165949 -1.77636e-015 10.1816 0.1315 -0.128716 12.3901 -2.9536 1.77636e-015 10.0835 -1.0008 -1.8995 -1.62168 -3.8674 0 9.1 -1.3734 -1.78576 1.31894 -0.118858 8.88178e-016 16.6717 -2.5162 1.78602 -8.12948 9.73185 -8.88178e-016 9.6179 1.685 -4.26163 -18.8738 -4.8407 0 17.8152 2.585 -2.48481e-016 -1.59028e-015 -1.98785e-016 3.0676 6.4095 9.2836 -2.48481e-016 -1.59028e-015 -1.98785e-016 -3.0676 6.4095 9.2835 -2.48481e-016 -1.59028e-015 -1.98785e-016 4.5704 10.946 -2.628 -21.0565 1.59755 6.03995 10.5924 -0.5246 -2.2321 -41.7975 15.2209 1.00106 27.8415 -0.0001 7.10543e-015 -1.97016 -4.44874 -47.7513 28.3288 0 0 -1.96485 -29.2431 -5.64033 2.4661 -1.575 2.6824 -27.605 12.9626 -0.241951 3.2298 -1.8647 1.8647 15.8949 22.593 24.3406 2.6526 -1.5315 1.5315 15.8134 31.2351 46.4353 9.1093 -0.5171 2.2601 -89.8848 -1.87474 3.29491 3.6764 0 0 -77.3455 -4.57374 5.71284 2.8831 -7.10543e-015 0 -28.8923 -0.728006 2.82542 9.5334 0 -1.42109e-014 -90.8619 -8.30489 5.8835 3.6982 0 0 -84.1115 -5.25556 5.82455 2.9509 0 0 -51.3656 -2.19905 4.57093 9.1045 -0.0439 -1.8651 -90.1825 -8.23544 5.91227 3.154 0 -1.42109e-014 -89.5734 -5.81203 5.85539 2.9377 0 0 -41.7993 -1.48938 3.89908 8.0778 -0.4887 -3.8061 -87.6261 -7.97105 6.01302 3.6 0 -1.42109e-014 -74.208 -4.26291 5.63382 2.1142 0 0 -50.3229 -2.11636 4.50356 -4.57 10.9462 -2.628 15.0332 1.30047 12.6897 -10.5928 -0.5248 -2.2321 50.2792 12.0142 -9.22368 -27.8415 1.42109e-014 0 1.38961 -3.84397 39.7379 -28.3288 0 0.0001 7.49614 -27.3992 9.37199 -8.0767 -0.4885 -3.806 87.1457 -6.69271 -4.80366 -3.6 0 0.0001 74.3905 -3.39458 -4.47359 -2.1142 0 -1.42109e-014 50.4378 -1.68646 -3.57994 -9.1036 -0.0439 -1.8651 89.7044 -6.90404 -4.70566 -3.154 1.42109e-014 0 89.7924 -4.6289 -4.64568 -2.9377 7.10543e-015 -1.42109e-014 41.8908 -1.18688 -3.10012 -9.5325 0 0 90.3843 -6.95944 -4.67845 -3.6982 0 -1.42109e-014 84.3188 -4.18618 -4.62285 -2.9509 0 -2.84217e-014 51.4834 -1.75234 -3.63541 -9.1083 -0.5168 2.2601 89.2195 -0.547627 -2.11098 -3.6764 0 0 77.5362 -3.64356 -4.536 -2.8831 0 0 28.9517 -0.580166 -2.24698 -2.4648 -1.5727 2.6826 -1.50446 33.5877 33.1848 -3.2298 -1.8647 1.8647 -0.888216 23.5559 -36.1456 -2.6526 -1.5314 1.5314 -5.06874 19.9834 -54.0399 8.2078 -6.7517 -1.5996 -5.84118 -31.8262 3.9133 -1.77636e-015 -44.3705 0.2846 -1.55951 25.7815 3.67771 0 -44.4279 -2.9822 7.12464 -11.7488 0.591189 1.77636e-015 -8.7287 10.7106 -7.82008e-006 -12.565 -6.38326e-006 -8.2078 -6.7517 -1.5996 -10.7942 -48.4213 -10.9982 2.66454e-015 -44.3705 0.2862 4.30085 52.685 -10.5155 0 -44.4277 -2.9838 7.68668 -1.80008 -2.89117 3.55271e-015 -8.7287 10.7106 -4.08934 -4.37877 -0.0365788 
3.27234 100.035 92.5031 3.94878 23.4275 1.19054 1.77636e-015 10.1816 0.1315 0.366764 12.1635 -3.55556 0 10.0835 -1.0008 -1.93638 -1.6147 -3.63629 8.88178e-016 9.1 -1.3734 -1.79459 1.35071 -0.0535515 8.88178e-016 16.6717 -2.5162 1.70183 -8.26872 9.23353 0 9.6179 1.685 -4.28848 -19.7281 -5.13566 0 17.8152 2.585 1.73937e-016 0 1.98785e-016 3.0676 6.4095 9.2836 1.73937e-016 0 1.98785e-016 -3.0676 6.4095 9.2835 1.73937e-016 0 1.98785e-016 4.5704 10.946 -2.628 -21.038 1.71001 5.77171 10.5924 -0.5246 -2.2321 -41.7852 14.9356 0.828002 27.8415 -0.0001 7.10543e-015 -1.97673 -4.45465 -47.8358 28.3288 0 -1.42109e-014 -2.32776 -28.7921 -5.32913 2.4661 -1.575 2.6824 -27.605 12.9626 -0.241951 3.2298 -1.8647 1.8647 15.8949 22.593 24.3406 2.6526 -1.5315 1.5315 15.8134 31.2351 46.4353 9.1093 -0.5171 2.2601 -89.8848 -1.87474 3.29491 3.6764 -1.42109e-014 0 -77.3455 -4.57374 5.71284 2.8831 0 1.42109e-014 -28.8923 -0.728006 2.82542 9.5334 0 -1.42109e-014 -90.8619 -8.30489 5.8835 3.6982 1.42109e-014 1.42109e-014 -84.1115 -5.25556 5.82455 2.9509 0 0 -51.3656 -2.19905 4.57093 9.1045 -0.0439 -1.8651 -90.1825 -8.23544 5.91227 3.154 -1.42109e-014 0 -89.5734 -5.81203 5.85539 2.9377 0 1.42109e-014 -41.7993 -1.48938 3.89908 8.0778 -0.4887 -3.8061 -87.6261 -7.97105 6.01302 3.6 0 0 -74.208 -4.26291 5.63382 2.1142 0 1.42109e-014 -50.3229 -2.11636 4.50356 -4.57 10.9462 -2.628 15.1162 1.31128 12.1942 -10.5928 -0.5248 -2.2321 50.28 11.8104 -9.96443 -27.8415 0 -2.13163e-014 1.48029 -3.95025 41.0718 -28.3288 0 0.0001 7.09984 -27.2611 8.51843 -8.0767 -0.4885 -3.806 87.1457 -6.69271 -4.80366 -3.6 0 0.0001 74.3905 -3.39458 -4.47359 -2.1142 0 1.42109e-014 50.4378 -1.68646 -3.57994 -9.1036 -0.0439 -1.8651 89.7044 -6.90404 -4.70566 -3.154 0 1.42109e-014 89.7924 -4.6289 -4.64568 -2.9377 0 0 41.8908 -1.18688 -3.10012 -9.5325 0 0 90.3843 -6.95944 -4.67845 -3.6982 -2.84217e-014 0 84.3188 -4.18618 -4.62285 -2.9509 0 0 51.4834 -1.75234 -3.63541 -9.1083 -0.5168 2.2601 89.2195 -0.547627 -2.11098 -3.6764 1.42109e-014 -1.42109e-014 77.5362 -3.64356 -4.536 -2.8831 0 0 28.9517 -0.580166 -2.24698 -2.4648 -1.5727 2.6826 -1.50446 33.5877 33.1848 -3.2298 -1.8647 1.8647 -0.888216 23.5559 -36.1456 -2.6526 -1.5314 1.5314 -5.06874 19.9834 -54.0399 8.2078 -6.7517 -1.5996 -5.80921 -27.9192 3.39207 1.77636e-015 -44.3705 0.2846 -1.53391 25.2281 3.34475 8.88178e-016 -44.4279 -2.9822 6.78593 -13.4105 0.6505 -8.88178e-016 -8.7287 10.7106 -3.88812e-007 -14.3923 -3.19467e-006 -8.2078 -6.7517 -1.5996 -10.7625 -50.6164 -11.1682 -8.88178e-016 -44.3705 0.2862 3.59145 42.8331 -9.33858 0 -44.4277 -2.9838 8.31127 -2.95122 -4.08879 0 -8.7287 10.7106 -4.22305 -3.89843 -0.175273 
3.11945 98.9048 98.145 3.98709 23.223 2.0496 0 10.1816 0.1315 0.414421 11.9618 -3.84589 0 10.0835 -1.0008 -2.10146 -1.59789 -3.21407 0 9.1 -1.3734 -1.76712 1.37897 -0.0892658 -4.44089e-016 16.6717 -2.5162 1.71031 -8.3925 8.58015 0 9.6179 1.685 -4.27748 -20.463 -5.55762 4.44089e-016 17.8152 2.585 -1.98785e-016 -7.95139e-016 -3.97569e-016 3.0676 6.4095 9.2836 -1.98785e-016 -7.95139e-016 -3.97569e-016 -3.0676 6.4095 9.2835 -1.98785e-016 -7.95139e-016 -3.97569e-016 4.5704 10.946 -2.628 -20.4884 1.96158 5.50564 10.5924 -0.5246 -2.2321 -42.0523 14.7686 0.848242 27.8415 -0.0001 0 -2.03446 -4.50614 -48.575 28.3288 0 0 -2.55717 -28.1651 -4.4671 2.4661 -1.575 2.6824 -27.605 12.9626 -0.241951 3.2298 -1.8647 1.8647 15.8949 22.593 24.3406 2.6526 -1.5315 1.5315 15.8134 31.2351 46.4353 9.1093 -0.5171 2.2601 -89.8848 -1.87474 3.29491 3.6764 1.42109e-014 0 -77.3455 -4.57374 5.71284 2.8831 -7.10543e-015 0 -28.8923 -0.728006 2.82542 9.5334 7.10543e-015 0 -90.8619 -8.30489 5.8835 3.6982 0 0 -84.1115 -5.25556 5.82455 2.9509 -7.10543e-015 0 -51.3656 -2.19905 4.57093 9.1045 -0.0439 -1.8651 -90.1825 -8.23544 5.91227 3.154 0 0 -89.5734 -5.81203 5.85539 2.9377 0 -1.42109e-014 -41.7993 -1.48938 3.89908 8.0778 -0.4887 -3.8061 -87.6261 -7.97105 6.01302 3.6 1.42109e-014 0 -74.208 -4.26291 5.63382 2.1142 1.42109e-014 0 -50.3229 -2.11636 4.50356 -4.57 10.9462 -2.628 14.3785 1.32202 11.6992 -10.5928 -0.5248 -2.2321 51.3535 11.9831 -10.7837 -27.8415 0 1.42109e-014 1.57655 -4.05777 42.4502 -28.3288 1.42109e-014 0.0001 6.38393 -27.7104 7.621 -8.0767 -0.4885 -3.806 87.1457 -6.69271 -4.80366 -3.6 2.84217e-014 0.0001 74.3905 -3.39458 -4.47359 -2.1142 0 -1.42109e-014 50.4378 -1.68646 -3.57994 -9.1036 -0.0439 -1.8651 89.7044 -6.90404 -4.70566 -3.154 1.42109e-014 0 89.7924 -4.6289 -4.64568 -2.9377 0 0 41.8908 -1.18688 -3.10012 -9.5325 -7.10543e-015 0 90.3843 -6.95944 -4.67845 -3.6982 -1.42109e-014 1.42109e-014 84.3188 -4.18618 -4.62285 -2.9509 0 -1.42109e-014 51.4834 -1.75234 -3.63541 -9.1083 -0.5168 2.2601 89.2195 -0.547627 -2.11098 -3.6764 1.42109e-014 0 77.5362 -3.64356 -4.536 -2.8831 0 0 28.9517 -0.580166 -2.24698 -2.4648 -1.5727 2.6826 -1.50446 33.5877 33.1848 -3.2298 -1.8647 1.8647 -0.888216 23.5559 -36.1456 -2.6526 -1.5314 1.5314 -5.06874 19.9834 -54.0399 8.2078 -6.7517 -1.5996 -5.87378 -24.5464 2.53127 0 -44.3705 0.2846 -1.52822 26.3707 3.57534 8.88178e-016 -44.4279 -2.9822 6.2896 -16.4638 0.75559 -8.88178e-016 -8.7287 10.7106 -4.89557e-006 -15.681 -1.79728e-006 -8.2078 -6.7517 -1.5996 -11.5621 -52.7086 -12.7515 8.88178e-016 -44.3705 0.2862 2.81117 34.5075 -6.77523 3.55271e-015 -44.4277 -2.9838 7.58621 -6.44229 -2.62815 0 -8.7287 10.7106 -2.38142e-006 -2.90291 6.67013e-006 
2.88479 97.2219 103.77 4.20879 22.9013 2.73768 -1.77636e-015 10.1816 0.1315 0.262247 11.7864 -3.9662 0 10.0835 -1.0008 -2.30549 -1.57535 -2.67802 -8.88178e-016 9.1 -1.3734 -1.72601 1.40457 -0.150641 2.22045e-016 16.6717 -2.5162 1.77532 -8.49414 7.83204 1.77636e-015 9.6179 1.685 -4.23938 -20.9419 -6.05754 4.44089e-016 17.8152 2.585 -1.98785e-016 0 -0 3.0676 6.4095 9.2836 -1.98785e-016 0 -0 -3.0676 6.4095 9.2835 -1.98785e-016 0 -0 4.5704 10.946 -2.628 -19.6422 2.27421 5.26208 10.5924 -0.5246 -2.2321 -42.51 14.6898 0.914945 27.8415 -0.0001 0 -2.10871 -4.57035 -49.5132 28.3288 0 1.42109e-014 -2.84571 -27.5183 -3.47723 2.4661 -1.575 2.6824 -27.605 12.9626 -0.241951 3.2298 -1.8647 1.8647 15.8949 22.593 24.3406 2.6526 -1.5315 1.5315 15.8134 31.2351 46.4353 9.1093 -0.5171 2.2601 -89.8848 -1.87474 3.29491 3.6764 1.42109e-014 0 -77.3455 -4.57374 5.71284 2.8831 7.10543e-015 0 -28.8923 -0.728006 2.82542 9.5334 0 -1.42109e-014 -90.8619 -8.30489 5.8835 3.6982 1.42109e-014 -1.42109e-014 -84.1115 -5.25556 5.82455 2.9509 7.10543e-015 0 -51.3656 -2.19905 4.57093 9.1045 -0.0439 -1.8651 -90.1825 -8.23544 5.91227 3.154 0 0 -89.5734 -5.81203 5.85539 2.9377 0 0 -41.7993 -1.48938 3.89908 8.0778 -0.4887 -3.8061 -87.6261 -7.97105 6.01302 3.6 -7.10543e-015 -1.42109e-014 -74.208 -4.26291 5.63382 2.1142 0 0 -50.3229 -2.11636 4.50356 -4.57 10.9462 -2.628 13.1521 1.34557 11.1957 -10.5928 -0.5248 -2.2321 53.0883 12.0311 -11.9415 -27.8415 -1.42109e-014 -7.10543e-015 1.71044 -4.19911 44.3102 -28.3288 -1.42109e-014 0.0001 5.44906 -28.0716 6.45713 -8.0767 -0.4885 -3.806 87.1457 -6.69271 -4.80366 -3.6 -1.42109e-014 0.0001 74.3905 -3.39458 -4.47359 -2.1142 0 -1.42109e-014 50.4378 -1.68646 -3.57994 -9.1036 -0.0439 -1.8651 89.7044 -6.90404 -4.70566 -3.154 0 0 89.7924 -4.6289 -4.64568 -2.9377 0 1.42109e-014 41.8908 -1.18688 -3.10012 -9.5325 -7.10543e-015 0 90.3843 -6.95944 -4.67845 -3.6982 0 0 84.3188 -4.18618 -4.62285 -2.9509 0 0 51.4834 -1.75234 -3.63541 -9.1083 -0.5168 2.2601 89.2195 -0.547627 -2.11098 -3.6764 -7.10543e-015 -1.42109e-014 77.5362 -3.64356 -4.536 -2.8831 -7.10543e-015 0 28.9517 -0.580166 -2.24698 -2.4648 -1.5727 2.6826 -1.50446 33.5877 33.1848 -3.2298 -1.8647 1.8647 -0.888216 23.5559 -36.1456 -2.6526 -1.5314 1.5314 -5.06874 19.9834 -54.0399 8.2078 -6.7517 -1.5996 -5.74856 -21.4644 2.36762 0 -44.3705 0.2846 -1.51689 28.507 3.23798 -8.88178e-016 -44.4279 -2.9822 5.69399 -19.7549 0.826202 0 -8.7287 10.7106 -5.97282e-006 -17.3036 4.63059e-007 -8.2078 -6.7517 -1.5996 -13.7816 -57.1101 -16.2351 0 -44.3705 0.2862 2.34992 32.4607 -2.64559 0 -44.4277 -2.9838 2.79655 -10.9381 -0.734132 1.77636e-015 -8.7287 10.7106 3.39118e-007 -1.60013 2.93268e-006 
